<svg xmlns="http://www.w3.org/2000/svg" width="1200" height="800" viewBox="0 0 1200 800" preserveAspectRatio="xMidYMid slice">
  <defs>
    <linearGradient id="g1" x1="0" x2="1" y1="0" y2="1">
      <stop offset="0%" stop-color="#f8fafc"/>
      <stop offset="100%" stop-color="#eef2ff"/>
    </linearGradient>
    <pattern id="p1" width="200" height="200" patternUnits="userSpaceOnUse">
      <rect width="200" height="200" fill="rgba(255,255,255,0)"/>
      <g fill="rgba(15,23,42,0.05)" transform="translate(20,20)">
        <rect x="0" y="110" width="160" height="60" rx="8" />
        <rect x="10" y="10" width="80" height="80" rx="8" />
        <path d="M120 30h40l-10 40h-40z" />
        <circle cx="40" cy="170" r="6" />
        <circle cx="120" cy="170" r="6" />
      </g>
    </pattern>
  </defs>
  <rect width="1200" height="800" fill="url(#g1)"/>
  <rect width="1200" height="800" fill="url(#p1)" opacity="0.6"/>
  <!-- Subtle illustrative elements -->
  <g transform="translate(80,80)" fill="#c7d2fe" opacity="0.85">
    <rect x="0" y="0" width="140" height="140" rx="18"/>
    <rect x="220" y="20" width="240" height="120" rx="12"/>
    <rect x="520" y="40" width="320" height="160" rx="14"/>
  </g>
  <g transform="translate(80,420)" fill="#bbf7d0" opacity="0.7">
    <rect x="0" y="0" width="160" height="100" rx="12"/>
    <rect x="260" y="10" width="200" height="80" rx="10"/>
    <rect x="520" y="20" width="220" height="120" rx="12"/>
  </g>
  <!-- Shopping cart icon pattern top-right -->
  <g transform="translate(900,40) scale(1.6)" fill="rgba(15,23,42,0.06)">
    <rect x="0" y="0" width="100" height="80" rx="8"/>
    <path d="M12 20h76l-10 36H26z"/>
    <circle cx="34" cy="70" r="6"/>
    <circle cx="80" cy="70" r="6"/>
  </g>
  <!-- Footer note -->
  <text x="40" y="760" font-family="Inter, Arial, sans-serif" font-size="12" fill="#94a3b8">E‑commerce dashboard background • subtle pattern</text>
</svg>
